<svg width="57" height="21" viewBox="0 0 57 21" fill="none" xmlns="http://www.w3.org/2000/svg">
<path d="M50.4725 0.164062H46.1252V0.998866H47.8264V4.88937H48.7714V0.998866H50.4725V0.164062Z" fill="white"/>
<path d="M56.7446 0.164062H55.3112L53.9724 3.83405L52.6178 0.164062H51.1687V4.88937H52.0823V1.15638L53.4526 4.88937H54.4607L55.831 1.15638V4.88937H56.7446V0.164062Z" fill="white"/>
<path fill-rule="evenodd" clip-rule="evenodd" d="M21.1265 20.2119V14.979H8.44416V20.2119H0V4.88937H8.44416V10.1223H21.1265V4.88937L41.7029 4.89005C46.4865 4.83305 50.0386 8.36696 49.9997 12.5507C50.0386 16.7116 46.4865 20.2683 41.7029 20.2113L21.1265 20.2119ZM40.4325 15.355C42.1955 15.355 43.1937 14.0896 43.1937 12.5507C43.1937 11.0003 42.1955 9.74633 40.4325 9.74633H32.9913V15.355H40.4325Z" fill="white"/>
</svg>
