<svg width="501" height="224" viewBox="0 0 501 224" fill="none" xmlns="http://www.w3.org/2000/svg">
<path d="M459.694 155.174C457.494 155.174 455.872 155.058 454.829 154.827C453.787 154.595 453.034 154.247 452.571 153.784C451.644 152.278 451.76 149.614 452.918 145.792C454.192 141.97 455.756 139.595 457.609 138.669C458.189 138.321 459.173 138.032 460.563 137.8C462.069 137.568 463.517 137.452 464.907 137.452C466.296 137.452 467.686 137.626 469.076 137.974C470.466 138.321 471.277 138.726 471.509 139.19C471.856 141.738 471.451 144.576 470.293 147.703C469.134 150.83 467.744 152.973 466.123 154.132C465.659 154.479 464.849 154.769 463.69 155C462.532 155.116 461.2 155.174 459.694 155.174Z" fill="#212529"/>
<path d="M413.912 199.999C409.742 207.065 402.04 212.856 390.804 217.374C379.685 221.891 368.044 224.034 355.882 223.802C347.195 223.686 339.724 222.412 333.47 219.98C327.215 217.547 323.161 214.13 321.308 209.729C320.613 208.107 320.323 206.37 320.439 204.517C320.439 202.779 320.902 200.984 321.829 199.131C323.219 196.003 325.941 192.586 329.995 188.88C333.933 185.289 339.782 180.946 347.543 175.849C347.89 175.618 352.06 172.896 360.052 167.683C367.928 162.587 374.183 158.359 378.816 155C378.584 155 378.411 155 378.295 155C378.179 155 378.005 155 377.774 155C377.31 155 376.847 154.942 376.384 154.827C376.036 154.711 375.689 154.595 375.341 154.479C371.287 151.468 369.144 145.734 368.913 137.279C368.797 128.707 370.592 119.962 374.299 111.044C377.774 102.704 383.218 94.9436 390.631 87.7623C398.043 80.4651 406.325 74.7317 415.476 70.5619C418.719 69.0561 421.846 67.8978 424.858 67.087C427.985 66.2762 430.765 65.8708 433.197 65.8708C437.367 65.8708 440.668 66.6816 443.1 68.3032C445.649 69.9248 449.645 73.9788 455.089 80.4651C457.753 78.2644 460.417 76.0058 463.081 73.6892C465.745 71.2568 468.061 69.114 470.03 67.2608L471.247 67.9557C468.351 71.4306 465.571 74.9054 462.907 78.3802C460.359 81.8551 458.042 85.2141 455.957 88.4573C448.544 100.156 442.348 111.507 437.367 122.511C432.386 133.398 428.448 144.228 425.553 155C424.742 158.012 423.931 161.081 423.12 164.209C422.425 167.452 421.614 171.853 420.688 177.413C419.298 184.594 418.14 189.633 417.213 192.528C416.286 195.424 415.186 197.914 413.912 199.999ZM387.156 108.785C384.376 117.472 382.928 125.117 382.812 131.719C382.812 138.321 384.086 143.128 386.634 146.139C393.352 141.622 403.082 133.283 415.823 121.121C428.68 108.959 438.757 98.071 446.054 88.4573C439.452 80.3493 434.761 75.2529 431.981 73.168C429.317 71.0831 426.479 70.0406 423.468 70.0406C422.309 70.0406 421.093 70.2144 419.819 70.5619C418.661 70.9094 417.387 71.3727 415.997 71.9518C410.09 74.6158 404.414 79.3648 398.97 86.1986C393.642 93.0325 389.704 100.561 387.156 108.785ZM336.249 208.339C338.103 212.74 341.52 216.099 346.5 218.416C351.365 220.848 357.388 222.065 364.569 222.065C370.94 222.065 377.137 220.327 383.16 216.852C389.183 213.493 394.395 208.686 398.796 202.432C400.418 199.999 401.808 197.046 402.966 193.571C404.24 190.096 405.804 184.015 407.657 175.328C409.047 168.378 410.263 162.877 411.306 158.823C412.348 154.884 413.449 151.12 414.607 147.529C417.271 139.537 420.224 132.066 423.468 125.117C426.711 118.051 430.475 111.102 434.761 104.268C426.421 112.839 417.155 121.989 406.962 131.719C396.769 141.333 388.546 148.804 382.291 154.132C370.245 162.819 362.6 168.378 359.357 170.811C356.114 173.359 353.276 175.733 350.844 177.934C347.253 181.062 344.299 183.957 341.983 186.621C339.666 189.401 337.929 192.065 336.771 194.613C335.728 196.93 335.149 199.246 335.033 201.563C334.917 203.88 335.323 206.138 336.249 208.339Z" fill="#212529"/>
<path d="M288.298 127.897C286.677 130.329 284.881 133.167 282.912 136.41C280.943 139.537 277.295 145.502 271.967 154.305C270.345 154.421 269.187 154.537 268.492 154.653C267.913 154.653 267.333 154.653 266.754 154.653C263.974 154.653 262.179 154.074 261.368 152.915C260.558 151.641 260.615 149.73 261.542 147.182C270.345 135.136 277.99 122.858 284.476 110.349C290.962 97.8393 294.032 88.8047 293.684 83.245C293.568 81.5076 292.989 80.0018 291.947 78.7277C291.02 77.3378 289.746 76.4112 288.125 75.9479C285.461 76.6428 282.217 78.3223 278.395 80.9864C274.689 83.5346 271.214 86.5461 267.971 90.0209L266.754 88.8047C271.272 84.4033 275.963 80.2914 280.827 76.4691C285.808 72.6468 290.441 69.5194 294.727 67.087C295.306 66.8554 295.827 66.6816 296.29 66.5658C296.87 66.3342 297.333 66.2183 297.68 66.2183C300.113 66.2183 302.256 68.0137 304.109 71.6043C306.078 75.195 307.178 79.0173 307.41 83.0713C307.642 86.1986 306.715 90.4263 304.63 95.7544C302.545 100.967 298.549 108.669 292.642 118.862C302.024 107.048 313.085 95.7544 325.826 84.9824C338.683 74.0946 348.355 67.7241 354.841 65.8708C360.749 67.145 363.065 71.4885 361.791 78.9015C360.517 86.3144 355.652 97.0864 347.197 111.217C346.386 112.607 345.112 114.866 343.374 117.993C341.637 121.005 340.305 123.263 339.378 124.769C337.409 128.36 336.019 131.314 335.209 133.63C334.398 135.831 334.05 137.742 334.166 139.364C334.282 141.101 334.745 142.607 335.556 143.881C336.483 145.039 337.699 145.85 339.205 146.313C341.984 145.387 345.401 143.533 349.455 140.753C353.509 137.858 357.1 134.788 360.227 131.545L361.27 132.761C356.058 137.858 351.251 142.143 346.849 145.618C342.564 149.093 338.394 152.047 334.34 154.479C333.877 154.711 333.413 154.884 332.95 155C332.602 155 331.907 155 330.865 155C329.938 155 329.012 154.942 328.085 154.827C327.274 154.711 326.753 154.537 326.521 154.305C324.668 152.915 323.105 150.888 321.83 148.224C320.672 145.444 320.035 142.896 319.919 140.58C319.803 138.958 320.267 136.815 321.309 134.151C322.352 131.487 324.031 128.128 326.348 124.074C327.39 122.105 328.954 119.383 331.039 115.908C333.239 112.434 334.745 110.001 335.556 108.611C341.463 98.4184 345.228 90.8317 346.849 85.8511C348.471 80.8705 348.008 77.1641 345.459 74.7317C339.089 76.7007 330.112 82.9554 318.529 93.4958C306.947 103.92 296.87 115.387 288.298 127.897Z" fill="#212529"/>
<path d="M241.288 154.827C237.929 154.942 235.438 155 233.817 155C232.311 155 231.037 155 229.995 155C229.3 155 228.952 154.769 228.952 154.305C228.952 153.726 229.3 153.437 229.995 153.437C234.628 153.437 237.523 152.568 238.682 150.831C239.956 148.977 240.593 143.997 240.593 135.889V89.4998C240.593 83.7084 239.956 80.0598 238.682 78.5541C237.523 76.9325 234.454 76.6429 229.473 77.6854C228.778 77.8012 228.315 77.6275 228.083 77.1642C227.968 76.7008 228.257 76.4113 228.952 76.2954C232.774 75.4847 236.365 74.3264 239.724 72.8206C243.083 71.199 246.732 69.0562 250.67 66.3922C251.017 66.1605 251.596 66.2184 252.407 66.5659C253.334 66.9134 253.797 67.2609 253.797 67.6084V135.889C253.797 143.997 254.376 148.977 255.535 150.831C256.809 152.568 259.704 153.437 264.222 153.437C264.917 153.437 265.264 153.726 265.264 154.305C265.264 154.769 264.917 155 264.222 155C263.179 155 261.905 155 260.399 155C258.894 155 256.577 154.942 253.45 154.827C251.365 154.711 249.917 154.653 249.106 154.653C248.411 154.653 247.89 154.653 247.543 154.653C247.195 154.653 246.616 154.653 245.805 154.653C244.994 154.653 243.489 154.711 241.288 154.827Z" fill="#212529"/>
<path d="M252.928 48.8443C254.781 47.1068 255.708 44.964 255.708 42.4158C255.708 39.8676 254.781 37.7248 252.928 35.9874C251.19 34.1341 249.048 33.2075 246.499 33.2075C243.951 33.2075 241.808 34.1341 240.071 35.9874C238.334 37.7248 237.465 39.8676 237.465 42.4158C237.465 44.964 238.334 47.1068 240.071 48.8443C241.808 50.5817 243.951 51.4504 246.499 51.4504C249.048 51.4504 251.19 50.5817 252.928 48.8443Z" fill="#212529"/>
<path d="M188.076 155.695H185.296C185.064 155.695 184.891 155.637 184.775 155.522C184.775 155.522 184.717 155.464 184.601 155.348L156.802 91.5848C152.98 82.7818 149.853 76.9325 147.42 74.0368C144.988 71.0253 141.687 69.5775 137.517 69.6933C136.938 69.6933 136.648 69.4617 136.648 68.9983C136.648 68.4192 136.938 68.1296 137.517 68.1296C137.749 68.1296 138.27 68.1296 139.081 68.1296C139.776 68.1296 141.339 68.1875 143.772 68.3034C147.594 68.3034 150.258 68.3613 151.764 68.4771C153.386 68.4771 154.428 68.4771 154.891 68.4771C155.239 68.4771 155.818 68.4771 156.629 68.4771C157.555 68.4771 159.177 68.4771 161.494 68.4771C164.968 68.3613 167.459 68.3034 168.964 68.3034C170.586 68.3034 171.802 68.3034 172.613 68.3034C173.308 68.3034 173.655 68.535 173.655 68.9983C173.655 69.4617 173.308 69.6933 172.613 69.6933C167.401 69.6933 164.563 70.7358 164.1 72.8207C163.636 74.7897 165.026 79.4228 168.269 86.72L192.593 142.317L212.574 94.1909C215.933 86.0829 216.975 80.002 215.701 75.948C214.427 71.7782 210.894 69.7512 205.103 69.8671C204.408 69.8671 204.06 69.6354 204.06 69.1721C204.06 68.593 204.408 68.3034 205.103 68.3034C206.029 68.3034 207.188 68.3034 208.577 68.3034C209.967 68.3034 212.168 68.3613 215.18 68.4771C217.033 68.4771 218.307 68.4771 219.002 68.4771C219.697 68.4771 220.218 68.4771 220.566 68.4771C221.029 68.4771 221.898 68.4771 223.172 68.4771C224.562 68.3613 226.878 68.3034 230.121 68.3034C232.091 68.1875 233.365 68.1296 233.944 68.1296C234.639 68.1296 235.102 68.1296 235.334 68.1296C235.913 68.1296 236.202 68.4192 236.202 68.9983C236.202 69.4617 235.913 69.6933 235.334 69.6933C231.627 69.5775 228.152 71.4886 224.909 75.4268C221.666 79.3649 218.075 85.9671 214.137 95.2333L188.771 155.348C188.655 155.464 188.539 155.522 188.423 155.522C188.423 155.637 188.308 155.695 188.076 155.695Z" fill="#212529"/>
<path d="M144.007 110.349C144.007 122.395 139.489 133.167 130.455 142.665C121.536 152.047 110.88 156.738 98.4864 156.738C85.8611 156.738 75.4946 152.684 67.3866 144.576C59.3945 136.468 55.3984 126.043 55.3984 113.302C55.3984 100.33 59.7999 89.2681 68.6028 80.1177C77.4057 70.9673 88.2935 66.3921 101.266 66.3921C113.891 66.3921 124.142 70.4461 132.019 78.554C140.011 86.662 144.007 97.2602 144.007 110.349ZM69.819 110.349C69.819 122.511 72.7726 132.993 78.6798 141.796C84.7029 150.483 92.2896 154.827 101.44 154.827C110.475 154.827 117.482 151.178 122.463 143.881C127.443 136.468 129.934 126.217 129.934 113.129C129.934 100.967 126.98 90.4264 121.073 81.5076C115.166 72.5889 107.868 68.1295 99.1813 68.1295C89.6835 68.1295 82.3863 71.7781 77.2899 79.0752C72.3093 86.2566 69.819 96.681 69.819 110.349Z" fill="#212529"/>
<path d="M15.1372 154.479C14.7897 154.595 14.2685 154.711 13.5735 154.827C12.9944 154.943 12.2994 155 11.4886 155C10.4462 155 9.40374 154.943 8.36129 154.827C7.43467 154.711 6.85553 154.537 6.62388 154.305C4.88646 153.031 3.49653 151.12 2.45408 148.572C1.41163 145.908 0.832489 143.186 0.716662 140.406C0.485006 137.858 1.23789 134.383 2.9753 129.982C4.71272 125.464 8.01381 118.746 12.8786 109.828C18.5541 99.519 25.0405 88.1679 32.3376 75.7743C39.6348 63.3807 44.7891 54.8674 47.8006 50.2343C51.9704 43.1688 57.7039 36.3349 65.0011 29.7328C72.2982 23.0148 80.2903 17.3392 88.9774 12.7061C96.8537 8.53629 104.904 5.40894 113.128 3.32404C121.467 1.12331 129.807 0.0229492 138.146 0.0229492C143.011 0.0229492 147.123 0.138775 150.482 0.370428C153.957 0.486254 156.563 0.659997 158.3 0.891656C158.879 1.00748 159.343 1.23914 159.69 1.58662C160.038 1.9341 160.211 2.3395 160.211 2.80281C160.211 4.88771 159.285 7.14635 157.432 9.57874C155.694 11.8953 154.015 13.0536 152.393 13.0536C150.656 13.0536 148.629 12.9957 146.312 12.8798C143.996 12.6482 140.231 12.3007 135.019 11.8374C128.069 11.1424 122.741 10.6791 119.035 10.4474C115.328 10.2158 111.853 10.1 108.61 10.1C104.093 10.1 100.386 10.4474 97.4908 11.1424C94.7109 11.7215 92.1048 12.7061 89.6724 14.096C85.1551 16.7601 80.522 21.0457 75.7731 26.9529C71.0241 32.8601 65.6381 41.026 59.6151 51.4505C54.6345 59.6742 49.4222 68.593 43.9783 78.2067C38.5344 87.7045 32.2218 98.9398 25.0405 111.913C20.639 119.905 17.6854 125.87 16.1797 129.808C14.7897 133.63 14.1527 136.815 14.2685 139.364C14.3843 140.985 14.9635 142.433 16.0059 143.707C17.0484 144.981 18.3804 145.85 20.002 146.313C22.7819 145.387 26.1988 143.534 30.2527 140.754C34.3067 137.858 37.8974 134.789 41.0247 131.545L42.0672 132.762C36.8549 137.858 32.0481 142.144 27.6466 145.618C23.361 149.093 19.1912 152.047 15.1372 154.479Z" fill="#212529"/>
</svg>
