<?xml version="1.0" standalone="no"?>
<!DOCTYPE svg PUBLIC "-//W3C//DTD SVG 20010904//EN"
 "http://www.w3.org/TR/2001/REC-SVG-20010904/DTD/svg10.dtd">
<svg version="1.0" xmlns="http://www.w3.org/2000/svg"
 width="1200.000000pt" height="1200.000000pt" viewBox="0 0 1200.000000 1200.000000"
 preserveAspectRatio="xMidYMid meet">
<metadata>
Created by potrace 1.14, written by Peter Selinger 2001-2017
</metadata>
<g transform="translate(0.000000,1200.000000) scale(0.100000,-0.100000)"
fill="#000000" stroke="none">
<path d="M8990 11989 c-1161 -83 -2308 -540 -3255 -1298 -432 -346 -829 -755
-1079 -1114 -282 -405 -1299 -2118 -1913 -3222 -495 -892 -713 -1362 -773
-1675 -16 -79 -14 -261 4 -371 33 -203 117 -396 221 -507 80 -86 114 -101 262
-108 141 -8 236 6 303 44 284 161 788 557 1203 944 l117 110 0 -104 c0 -145
17 -302 47 -438 44 -203 108 -338 215 -455 65 -71 112 -95 203 -104 l60 -6
-125 -89 c-188 -133 -598 -406 -1150 -766 -691 -450 -956 -636 -1215 -851
-138 -115 -337 -316 -418 -424 -83 -109 -180 -303 -201 -402 -78 -355 128
-685 554 -890 142 -68 391 -147 590 -187 227 -45 430 -66 715 -73 778 -19
1528 145 2205 483 582 291 917 636 1088 1124 64 183 156 590 237 1045 82 463
133 687 262 1140 306 1085 811 2194 1512 3320 230 371 407 619 699 984 210
262 214 270 161 286 -15 5 -60 -31 -202 -162 -182 -169 -604 -534 -616 -532
-3 0 -55 59 -116 130 -142 168 -381 410 -470 477 -130 96 -250 141 -438 163
-332 39 -747 -66 -1234 -310 -473 -236 -852 -512 -1246 -905 -497 -496 -803
-1011 -986 -1658 -69 -245 -130 -593 -110 -630 8 -14 -9 -35 -88 -112 -181
-174 -401 -348 -602 -476 -129 -82 -328 -184 -391 -201 -42 -11 -50 -10 -102
15 -113 54 -206 176 -229 304 -36 192 61 523 287 973 263 526 1378 2508 1969
3499 100 168 222 373 270 455 557 942 1008 1501 1437 1782 429 282 927 322
2318 188 627 -60 806 -75 971 -81 175 -7 176 -7 233 19 135 62 295 288 327
462 23 128 -18 164 -201 179 -371 31 -1053 43 -1310 25z m-1815 -3766 c154
-38 293 -132 490 -335 173 -176 526 -584 542 -624 8 -21 -288 -387 -537 -664
-592 -658 -1621 -1637 -2266 -2157 -120 -97 -360 -273 -371 -273 -13 0 -69 89
-103 161 -75 162 -105 370 -97 669 8 284 47 529 143 884 162 606 378 1059 701
1473 332 427 699 715 1066 838 166 55 289 63 432 28z m412 -1850 c-3 -5 -37
-62 -77 -127 -376 -625 -707 -1348 -955 -2091 -135 -402 -224 -734 -320 -1185
-25 -118 -61 -291 -81 -385 -138 -657 -265 -1077 -397 -1315 -155 -279 -457
-599 -755 -798 -334 -224 -676 -348 -1022 -370 -328 -21 -696 26 -950 123
-413 157 -657 400 -745 741 -28 107 -24 291 9 417 73 283 267 561 628 904 359
341 570 506 1508 1183 264 191 419 311 560 434 609 532 1449 1327 2240 2120
195 196 356 356 358 356 2 0 1 -3 -1 -7z"/>
<path d="M9065 4624 c-78 -11 -184 -38 -222 -56 -128 -60 -255 -299 -300 -565
-42 -251 21 -310 342 -320 270 -9 381 16 465 106 138 147 260 513 235 706 -6
51 -9 57 -44 74 -73 38 -152 52 -301 56 -80 2 -158 1 -175 -1z"/>
</g>
</svg>
