<svg width="119" height="139" viewBox="0 0 119 139" fill="none" xmlns="http://www.w3.org/2000/svg">
<path d="M95.366 4.428C95.366 8.692 94.2727 12.8467 92.086 16.892C89.8993 20.9373 87.084 24.846 83.64 28.618C80.196 32.3353 76.3693 35.9433 72.16 39.442C67.9507 42.886 63.8507 46.166 59.86 49.282C59.1493 49.8287 58.4387 50.3753 57.728 50.922C57.072 51.414 56.416 51.9333 55.76 52.48L53.956 55.186H64.042V56.088H53.3C52.8627 56.7987 51.9333 58.302 50.512 60.598C49.1453 62.8393 47.4507 65.6273 45.428 68.962C43.4053 72.2967 41.1367 76.0413 38.622 80.196C36.1073 84.3507 33.5107 88.642 30.832 93.07C28.1533 97.498 25.4747 101.953 22.796 106.436C20.0627 110.919 17.4933 115.155 15.088 119.146C12.6827 123.137 10.5233 126.772 8.61 130.052C6.642 133.387 5.05667 136.065 3.854 138.088H0C1.476 135.245 3.22533 132.047 5.248 128.494C7.27067 124.995 9.45733 121.251 11.808 117.26C14.104 113.269 16.5367 109.115 19.106 104.796C21.6753 100.477 24.2993 96.1313 26.978 91.758C29.602 87.4393 32.1987 83.148 34.768 78.884C37.392 74.5653 39.9067 70.438 42.312 66.502C42.64 66.01 42.8587 65.4907 42.968 64.944C43.132 64.3973 43.214 63.8507 43.214 63.304C43.214 61.7187 42.6673 60.27 41.574 58.958C40.4807 57.5913 38.9227 56.6347 36.9 56.088V55.186H49.2C51.2773 51.8513 53.546 48.216 56.006 44.28C58.466 40.2893 60.926 36.3533 63.386 32.472C65.9007 28.5907 68.306 24.9007 70.602 21.402C72.898 17.9033 74.8933 14.9513 76.588 12.546C79.704 8.118 82.574 4.92 85.198 2.952C87.822 0.984 90.0087 0 91.758 0C92.8513 0 93.726 0.382665 94.382 1.14799C95.038 1.91333 95.366 3.00667 95.366 4.428ZM94.874 4.346C94.874 3.362 94.6827 2.542 94.3 1.886C93.9173 1.23 93.3433 0.902003 92.578 0.902003C91.9767 0.902003 91.266 1.148 90.446 1.64C89.6807 2.07733 88.7513 2.84267 87.658 3.936C86.1273 5.52133 84.4873 7.43467 82.738 9.676C81.0433 11.9173 79.294 14.35 77.49 16.974C75.686 19.5433 73.882 22.2493 72.078 25.092C70.274 27.9347 68.5247 30.75 66.83 33.538C65.1353 36.2713 63.5227 38.95 61.992 41.574C60.4613 44.1433 59.0673 46.494 57.81 48.626C62.238 45.6193 66.6387 42.3667 71.012 38.868C75.44 35.3147 79.4033 31.6247 82.902 27.798C86.4553 23.9713 89.3253 20.09 91.512 16.154C93.7533 12.1633 94.874 8.22733 94.874 4.346ZM48.872 56.088H39.36C39.9067 56.3613 40.4533 56.6893 41 57.072C41.6013 57.4547 42.1207 57.9467 42.558 58.548C43.05 59.1493 43.4327 59.8873 43.706 60.762C43.9793 61.582 44.116 62.6207 44.116 63.878L48.872 56.088Z" fill="#212529"/>
<path d="M96.6428 61.172C95.8228 61.7187 94.9481 62.0467 94.0188 62.156C93.0894 62.2653 92.5701 62.32 92.4608 62.32C90.4928 62.32 88.5248 62.0467 86.5568 61.5C84.6434 60.8987 83.1128 60.2973 81.9648 59.696C81.3634 61.7187 80.4068 64.0147 79.0948 66.584C77.8374 69.0987 76.2794 71.6407 74.4208 74.21C72.6168 76.7247 70.5668 79.13 68.2708 81.426C66.0294 83.722 63.6514 85.608 61.1368 87.084C59.1141 88.0133 57.3374 88.478 55.8068 88.478C53.1281 88.478 51.7888 86.9747 51.7888 83.968C51.7888 82.9293 52.0074 81.59 52.4448 79.95C52.9368 78.2553 53.6474 76.3693 54.5768 74.292C55.5061 72.2147 56.5994 70.1373 57.8568 68.06C59.1688 65.9827 60.5901 63.9873 62.1208 62.074C63.7061 60.106 65.3734 58.3567 67.1228 56.826C68.8721 55.2953 70.7034 54.0927 72.6168 53.218C74.5301 52.2887 76.4708 51.824 78.4388 51.824C79.5321 51.824 80.3248 52.0973 80.8168 52.644C81.3088 53.1907 81.6914 53.8467 81.9648 54.612C81.9648 54.8853 81.9921 55.268 82.0468 55.76C82.1014 56.252 82.1288 56.7167 82.1288 57.154C82.1288 57.5367 82.0741 57.892 81.9648 58.22C82.1288 58.3293 82.5114 58.63 83.1128 59.122C83.7688 59.614 84.4794 59.9967 85.2448 60.27C86.6114 60.8713 87.8961 61.3087 89.0988 61.582C90.3014 61.8007 91.4221 61.91 92.4608 61.91C93.3901 61.91 94.2374 61.7733 95.0028 61.5C95.7681 61.172 96.3148 60.8987 96.6428 60.68V61.172ZM81.1448 55.186C81.1448 54.53 80.8988 53.956 80.4068 53.464C79.9694 52.9173 79.3681 52.644 78.6028 52.644C77.0721 52.644 75.4048 53.3547 73.6008 54.776C71.8514 56.1427 70.0748 57.892 68.2708 60.024C66.4668 62.156 64.7174 64.534 63.0228 67.158C61.3281 69.7273 59.7974 72.2147 58.4308 74.62C57.1188 77.0253 55.9981 79.1847 55.0688 81.098C54.1394 82.9567 53.5654 84.2687 53.3468 85.034C53.2374 85.4713 53.1828 85.7993 53.1828 86.018C53.1828 87.494 54.0574 88.232 55.8068 88.232C56.5721 88.232 57.4194 88.0953 58.3488 87.822C59.3328 87.494 60.3714 86.9473 61.4648 86.182C64.1434 84.2687 66.6581 82.0273 69.0088 79.458C71.4141 76.8887 73.5188 74.21 75.3228 71.422C77.1268 68.5793 78.5481 65.764 79.5868 62.976C80.6254 60.188 81.1448 57.5913 81.1448 55.186Z" fill="#212529"/>
<path d="M117.746 79.048C116.926 79.704 116.051 80.4693 115.122 81.344C114.247 82.164 113.263 82.984 112.17 83.804C111.131 84.624 109.983 85.4167 108.726 86.182C107.468 86.8927 106.102 87.494 104.626 87.986C103.915 88.2593 103.204 88.4233 102.494 88.478C101.838 88.5327 101.209 88.56 100.608 88.56C98.4209 88.56 96.6169 88.068 95.1956 87.084C93.8289 86.0453 93.1456 84.6513 93.1456 82.902C93.1456 82.246 93.2003 81.508 93.3096 80.688C93.4736 79.8133 93.8016 78.9933 94.2936 78.228L106.102 59.368C107.25 57.564 107.824 56.1973 107.824 55.268C107.824 54.612 107.55 54.1473 107.004 53.874C106.512 53.546 106.047 53.3547 105.61 53.3C104.243 53.3 103.068 53.4367 102.084 53.71C101.1 53.9833 100.28 54.3387 99.6236 54.776C98.9676 55.1587 98.4209 55.596 97.9836 56.088C97.5463 56.5253 97.1636 56.9353 96.8356 57.318C96.0156 58.5753 95.0589 60.2153 93.9656 62.238C92.8723 64.2607 91.5876 66.4473 90.1116 68.798C88.6356 71.094 86.9409 73.4447 85.0276 75.85C83.1143 78.2553 80.9276 80.4693 78.4676 82.492L77.9756 81.672C80.2169 79.704 82.3763 77.3807 84.4536 74.702C86.5856 72.0233 88.4989 69.3173 90.1936 66.584C91.9429 63.8507 93.4463 61.3087 94.7036 58.958C95.9609 56.6073 96.8903 54.776 97.4916 53.464C97.9836 52.4253 98.3936 51.4687 98.7216 50.594C99.1043 49.7193 99.4596 48.954 99.7876 48.298C100.17 47.642 100.553 47.15 100.936 46.822C101.373 46.4393 101.892 46.248 102.494 46.248C103.642 46.576 104.216 46.986 104.216 47.478C104.216 47.7513 104.052 48.0793 103.724 48.462C103.45 48.79 103.122 49.1453 102.74 49.528C102.357 49.856 102.002 50.2113 101.674 50.594C101.4 50.9767 101.264 51.332 101.264 51.66C101.264 51.824 101.291 52.0153 101.346 52.234C101.4 52.4527 101.482 52.6167 101.592 52.726C102.248 52.6167 102.876 52.5347 103.478 52.48C104.134 52.3707 104.844 52.316 105.61 52.316C107.031 52.316 108.261 52.6167 109.3 53.218C110.393 53.8193 110.94 54.7487 110.94 56.006C110.94 57.318 110.311 59.04 109.054 61.172C107.414 64.0147 105.664 66.9393 103.806 69.946C102.002 72.898 100.198 75.932 98.3936 79.048C97.1909 81.1253 96.5896 82.7653 96.5896 83.968C96.5896 85.1707 96.9723 86.0727 97.7376 86.674C98.5576 87.2207 99.6509 87.494 101.018 87.494C101.619 87.494 102.248 87.4667 102.904 87.412C103.56 87.3027 104.243 87.1113 104.954 86.838C105.992 86.4553 107.113 85.9087 108.316 85.198C109.573 84.4327 110.803 83.6127 112.006 82.738C113.263 81.8087 114.411 80.8793 115.45 79.95C116.543 79.0207 117.418 78.228 118.074 77.572L117.746 79.048Z" fill="#212529"/>
</svg>
