<svg width="96" height="139" viewBox="0 0 96 139" fill="none" xmlns="http://www.w3.org/2000/svg">
<path d="M48.2692 61.172C47.4492 61.7187 46.5745 62.0467 45.6452 62.156C44.7158 62.2653 44.1965 62.32 44.0872 62.32C42.1192 62.32 40.1512 62.0467 38.1832 61.5C36.2698 60.8987 34.7392 60.2973 33.5912 59.696C32.9898 61.7187 32.0332 64.0147 30.7212 66.584C29.4638 69.0987 27.9058 71.6407 26.0472 74.21C24.2432 76.7247 22.1932 79.13 19.8972 81.426C17.6558 83.722 15.2778 85.608 12.7632 87.084C10.7405 88.0133 8.96384 88.478 7.43317 88.478C4.75451 88.478 3.41517 86.9747 3.41517 83.968C3.41517 82.9293 3.63384 81.59 4.07117 79.95C4.56317 78.2553 5.27384 76.3693 6.20317 74.292C7.13251 72.2147 8.22584 70.1373 9.48317 68.06C10.7952 65.9827 12.2165 63.9873 13.7472 62.074C15.3325 60.106 16.9998 58.3567 18.7492 56.826C20.4985 55.2953 22.3298 54.0927 24.2432 53.218C26.1565 52.2887 28.0972 51.824 30.0652 51.824C31.1585 51.824 31.9512 52.0973 32.4432 52.644C32.9352 53.1907 33.3178 53.8467 33.5912 54.612C33.5912 54.8853 33.6185 55.268 33.6732 55.76C33.7278 56.252 33.7552 56.7167 33.7552 57.154C33.7552 57.5367 33.7005 57.892 33.5912 58.22C33.7552 58.3293 34.1378 58.63 34.7392 59.122C35.3952 59.614 36.1058 59.9967 36.8712 60.27C38.2378 60.8713 39.5225 61.3087 40.7252 61.582C41.9278 61.8007 43.0485 61.91 44.0872 61.91C45.0165 61.91 45.8638 61.7733 46.6292 61.5C47.3945 61.172 47.9412 60.8987 48.2692 60.68V61.172ZM32.7712 55.186C32.7712 54.53 32.5252 53.956 32.0332 53.464C31.5958 52.9173 30.9945 52.644 30.2292 52.644C28.6985 52.644 27.0312 53.3547 25.2272 54.776C23.4778 56.1427 21.7012 57.892 19.8972 60.024C18.0932 62.156 16.3438 64.534 14.6492 67.158C12.9545 69.7273 11.4238 72.2147 10.0572 74.62C8.74517 77.0253 7.62451 79.1847 6.69517 81.098C5.76584 82.9567 5.19184 84.2687 4.97317 85.034C4.86384 85.4713 4.80917 85.7993 4.80917 86.018C4.80917 87.494 5.68384 88.232 7.43317 88.232C8.19851 88.232 9.04584 88.0953 9.97517 87.822C10.9592 87.494 11.9978 86.9473 13.0912 86.182C15.7698 84.2687 18.2845 82.0273 20.6352 79.458C23.0405 76.8887 25.1452 74.21 26.9492 71.422C28.7532 68.5793 30.1745 65.764 31.2132 62.976C32.2518 60.188 32.7712 57.5913 32.7712 55.186Z" fill="#212529"/>
<path d="M95.366 4.428C95.366 8.692 94.2727 12.8467 92.086 16.892C89.8993 20.9373 87.084 24.846 83.64 28.618C80.196 32.3353 76.3693 35.9433 72.16 39.442C67.9507 42.886 63.8507 46.166 59.86 49.282C59.1493 49.8287 58.4387 50.3753 57.728 50.922C57.072 51.414 56.416 51.9333 55.76 52.48L53.956 55.186H64.042V56.088H53.3C52.8627 56.7987 51.9333 58.302 50.512 60.598C49.1453 62.8393 47.4507 65.6273 45.428 68.962C43.4053 72.2967 41.1367 76.0413 38.622 80.196C36.1073 84.3507 33.5107 88.642 30.832 93.07C28.1533 97.498 25.4747 101.953 22.796 106.436C20.0627 110.919 17.4933 115.155 15.088 119.146C12.6827 123.137 10.5233 126.772 8.61 130.052C6.642 133.387 5.05667 136.065 3.854 138.088H0C1.476 135.245 3.22533 132.047 5.248 128.494C7.27067 124.995 9.45733 121.251 11.808 117.26C14.104 113.269 16.5367 109.115 19.106 104.796C21.6753 100.477 24.2993 96.1313 26.978 91.758C29.602 87.4393 32.1987 83.148 34.768 78.884C37.392 74.5653 39.9067 70.438 42.312 66.502C42.64 66.01 42.8587 65.4907 42.968 64.944C43.132 64.3973 43.214 63.8507 43.214 63.304C43.214 61.7187 42.6673 60.27 41.574 58.958C40.4807 57.5913 38.9227 56.6347 36.9 56.088V55.186H49.2C51.2773 51.8513 53.546 48.216 56.006 44.28C58.466 40.2893 60.926 36.3533 63.386 32.472C65.9007 28.5907 68.306 24.9007 70.602 21.402C72.898 17.9033 74.8933 14.9513 76.588 12.546C79.704 8.118 82.574 4.92 85.198 2.952C87.822 0.984 90.0087 0 91.758 0C92.8513 0 93.726 0.382665 94.382 1.14799C95.038 1.91333 95.366 3.00667 95.366 4.428ZM94.874 4.346C94.874 3.362 94.6827 2.542 94.3 1.886C93.9173 1.23 93.3433 0.902003 92.578 0.902003C91.9767 0.902003 91.266 1.148 90.446 1.64C89.6807 2.07733 88.7513 2.84267 87.658 3.936C86.1273 5.52133 84.4873 7.43467 82.738 9.676C81.0433 11.9173 79.294 14.35 77.49 16.974C75.686 19.5433 73.882 22.2493 72.078 25.092C70.274 27.9347 68.5247 30.75 66.83 33.538C65.1353 36.2713 63.5227 38.95 61.992 41.574C60.4613 44.1433 59.0673 46.494 57.81 48.626C62.238 45.6193 66.6387 42.3667 71.012 38.868C75.44 35.3147 79.4033 31.6247 82.902 27.798C86.4553 23.9713 89.3253 20.09 91.512 16.154C93.7533 12.1633 94.874 8.22733 94.874 4.346ZM48.872 56.088H39.36C39.9067 56.3613 40.4533 56.6893 41 57.072C41.6013 57.4547 42.1207 57.9467 42.558 58.548C43.05 59.1493 43.4327 59.8873 43.706 60.762C43.9793 61.582 44.116 62.6207 44.116 63.878L48.872 56.088Z" fill="#212529"/>
</svg>
